<svg width="392" height="96" viewBox="0 0 392 96" fill="none" xmlns="http://www.w3.org/2000/svg">
<path d="M58.2554 58.9248H66.5784V53.542H55.7753C54.1779 53.542 52.8748 54.8456 52.8748 56.4437V67.2093H58.2554V58.9248Z" fill="#C3AC6F"/>
<path d="M63.6356 29.1511H31.3943C29.7969 29.1511 28.4938 30.4548 28.4938 32.0528V64.3076C28.4938 65.9056 29.7969 67.2092 31.3943 67.2092H47.536V61.8685H33.8744V34.5339H61.1975V48.2012H66.5781V32.0528C66.536 30.4548 65.2329 29.1511 63.6356 29.1511Z" fill="#F9FBFB"/>
<path d="M125.184 67.4453C122.895 67.4453 120.904 66.9346 119.336 65.9132C117.725 64.8919 116.496 63.4449 115.691 61.615C114.844 59.785 114.462 57.6572 114.462 55.274V39.9534C114.462 39.6129 114.589 39.2725 114.801 39.0597C115.056 38.8044 115.352 38.7192 115.691 38.7192H118.403C118.742 38.7192 119.081 38.8469 119.293 39.0597C119.548 39.315 119.632 39.6129 119.632 39.9534V54.9761C119.632 60.3808 121.963 63.0619 126.667 63.0619C128.913 63.0619 130.693 62.3384 132.049 60.934C133.405 59.4871 134.083 57.5295 134.083 54.9761V39.9534C134.083 39.6129 134.21 39.2725 134.422 39.0597C134.676 38.8044 134.973 38.7192 135.312 38.7192H138.024C138.363 38.7192 138.66 38.8469 138.872 39.0597C139.084 39.315 139.211 39.6129 139.211 39.9534V66.2111C139.211 66.5941 139.084 66.892 138.872 67.1048C138.66 67.3602 138.363 67.4453 138.024 67.4453H135.482C135.1 67.4453 134.804 67.3176 134.592 67.1048C134.337 66.8495 134.253 66.5516 134.253 66.2111V63.2747C133.278 64.5514 132.091 65.5728 130.693 66.2962C129.294 67.0623 127.472 67.4453 125.184 67.4453Z" fill="#F9FBFB"/>
<path d="M152.528 67.3603C150.715 67.3603 149.113 67.0203 147.637 66.2979C146.162 65.5755 144.981 64.6407 144.096 63.4083C143.21 62.2185 142.746 60.8587 142.746 59.3289C142.746 56.8642 143.758 54.952 145.74 53.4647C147.764 52.0199 150.378 51.0425 153.582 50.5751L161.594 49.4703V47.9405C161.594 46.2407 161.088 44.9234 160.118 43.946C159.148 42.9687 157.546 42.5012 155.311 42.5012C153.751 42.5012 152.444 42.8412 151.432 43.4786C150.42 44.116 149.746 44.9234 149.324 45.9432C149.113 46.4957 148.734 46.7506 148.185 46.7506H145.782C145.403 46.7506 145.108 46.6231 144.897 46.4107C144.686 46.1982 144.602 45.9007 144.602 45.6033C144.602 45.0509 144.812 44.4135 145.234 43.6486C145.656 42.8837 146.288 42.1188 147.131 41.3539C147.975 40.589 149.113 39.9941 150.42 39.4841C151.769 38.9742 153.414 38.7192 155.353 38.7192C157.504 38.7192 159.317 38.9742 160.792 39.5266C162.268 40.0791 163.407 40.8015 164.25 41.7363C165.093 42.6712 165.683 43.6911 166.063 44.8809C166.442 46.0707 166.611 47.2181 166.611 48.4504V66.213C166.611 66.5529 166.485 66.8504 166.274 67.1053C166.021 67.3178 165.726 67.4453 165.388 67.4453H162.901C162.521 67.4453 162.184 67.3178 161.973 67.1053C161.762 66.8929 161.636 66.5954 161.636 66.213V63.3234C161.172 63.9608 160.539 64.5982 159.738 65.1931C158.937 65.8305 157.967 66.3404 156.787 66.7229C155.691 67.1903 154.257 67.3603 152.528 67.3603ZM153.667 63.3658C155.142 63.3658 156.492 63.0684 157.714 62.431C158.937 61.7936 159.907 60.8587 160.582 59.5414C161.298 58.2241 161.636 56.5668 161.636 54.6121V53.1248L155.395 54.0171C152.866 54.3571 150.926 54.952 149.661 55.8019C148.354 56.6518 147.722 57.6716 147.722 58.9465C147.722 59.9238 148.017 60.7737 148.607 61.4111C149.197 62.0485 149.956 62.5585 150.884 62.8559C151.727 63.2384 152.697 63.3658 153.667 63.3658Z" fill="#F9FBFB"/>
<path d="M181.845 67.4028C179.9 67.4028 178.245 67.0633 176.838 66.3843C175.431 65.7053 174.272 64.7717 173.361 63.5834C172.451 62.3952 171.789 61.0372 171.375 59.5094C170.92 57.9816 170.671 56.369 170.63 54.6715C170.589 54.1198 170.589 53.5681 170.589 53.0589C170.589 52.5496 170.589 52.0403 170.63 51.4462C170.713 49.7911 170.961 48.1785 171.375 46.6507C171.83 45.123 172.492 43.765 173.361 42.5767C174.272 41.3884 175.431 40.4124 176.838 39.7334C178.245 39.0544 179.9 38.7149 181.845 38.7149C183.915 38.7149 185.653 39.0968 187.019 39.8182C188.384 40.5397 189.502 41.4733 190.412 42.5767V30.2273C190.412 29.8878 190.536 29.5907 190.743 29.3361C190.992 29.1239 191.281 28.9966 191.612 28.9966H194.137C194.468 28.9966 194.799 29.1239 195.006 29.3361C195.254 29.5483 195.337 29.8453 195.337 30.2273V66.2146C195.337 66.5541 195.213 66.8512 195.006 67.1058C194.758 67.318 194.468 67.4453 194.137 67.4453H191.778C191.405 67.4453 191.074 67.318 190.867 67.1058C190.661 66.8936 190.536 66.5965 190.536 66.2146V63.4561C189.667 64.6019 188.508 65.5356 187.101 66.2995C185.736 67.0209 183.956 67.4028 181.845 67.4028ZM182.963 63.1166C184.742 63.1166 186.149 62.6922 187.184 61.8859C188.26 61.0796 189.046 60.0187 189.543 58.788C190.081 57.5148 190.371 56.2417 190.371 54.9261C190.412 54.3744 190.412 53.6954 190.412 52.8891C190.412 52.0828 190.412 51.4038 190.371 50.8521C190.329 49.6214 190.04 48.3907 189.502 47.2024C188.964 46.0142 188.136 44.9957 187.06 44.2318C185.984 43.4679 184.618 43.0435 182.921 43.0435C181.142 43.0435 179.693 43.4255 178.659 44.2318C177.583 45.0381 176.838 46.0566 176.382 47.3722C175.927 48.6453 175.679 50.0458 175.596 51.5311C175.555 52.5496 175.555 53.5681 175.596 54.6291C175.679 56.1144 175.927 57.5148 176.382 58.788C176.838 60.0611 177.583 61.122 178.659 61.9284C179.735 62.7347 181.183 63.1166 182.963 63.1166Z" fill="#F9FBFB"/>
<path d="M202.275 67.4453C201.905 67.4453 201.617 67.3176 201.411 67.1048C201.165 66.8495 201.082 66.5516 201.082 66.2111V40.0385C201.082 39.6555 201.206 39.3576 201.411 39.1023C201.658 38.8469 201.946 38.7192 202.275 38.7192H204.702C205.032 38.7192 205.361 38.8469 205.607 39.1023C205.854 39.3576 205.978 39.6555 205.978 40.0385V42.4643C206.677 41.2301 207.623 40.2513 208.857 39.6555C210.091 39.0171 211.572 38.7192 213.3 38.7192H215.357C215.686 38.7192 215.974 38.8469 216.221 39.0597C216.468 39.315 216.55 39.6129 216.55 39.9534V42.2089C216.55 42.5919 216.427 42.8898 216.221 43.1026C215.974 43.3154 215.686 43.4431 215.357 43.4431H212.19C210.297 43.4431 208.816 44.0389 207.747 45.1879C206.677 46.337 206.101 47.9116 206.101 49.9118V66.1686C206.101 66.5516 205.978 66.8495 205.731 67.0623C205.484 67.3176 205.196 67.4027 204.826 67.4027H202.275V67.4453Z" fill="#F9FBFB"/>
<path d="M219.416 34.4771C219.076 34.4771 218.81 34.3497 218.621 34.1372C218.394 33.8823 218.318 33.5849 218.318 33.2451V30.3136C218.318 29.9737 218.432 29.6339 218.621 29.3789C218.848 29.124 219.113 28.9966 219.416 28.9966H222.447C222.75 28.9966 223.053 29.124 223.28 29.3789C223.508 29.6339 223.621 29.9312 223.621 30.3136V33.2451C223.621 33.6274 223.508 33.9248 223.28 34.1372C223.053 34.3921 222.788 34.4771 222.447 34.4771H219.416ZM219.795 67.4453C219.454 67.4453 219.189 67.3178 219 67.1054C218.772 66.8505 218.697 66.5531 218.697 66.2132V40.0001C218.697 39.6603 218.81 39.3204 219 39.108C219.227 38.853 219.492 38.7681 219.795 38.7681H222.106C222.409 38.7681 222.674 38.8955 222.901 39.108C223.129 39.3629 223.205 39.6603 223.205 40.0001V66.2132C223.205 66.5956 223.091 66.893 222.901 67.1054C222.674 67.3603 222.409 67.4453 222.106 67.4453H219.795Z" fill="#F9FBFB"/>
<path d="M227.381 67.4453C227.082 67.4453 226.827 67.3176 226.614 67.1048C226.358 66.892 226.273 66.5941 226.273 66.2962C226.273 66.1686 226.315 66.0409 226.358 65.8707C226.401 65.7004 226.528 65.5302 226.656 65.2749L236.072 52.7631L227.21 40.8471C227.082 40.6343 226.955 40.4215 226.912 40.2939C226.869 40.1662 226.827 39.996 226.827 39.8683C226.827 39.5278 226.955 39.2725 227.168 39.0597C227.381 38.8469 227.636 38.7192 227.977 38.7192H230.746C231.13 38.7192 231.471 38.8044 231.684 39.0171C231.897 39.2299 232.067 39.4002 232.152 39.6129L239.395 49.1883L246.638 39.6555C246.766 39.4853 246.936 39.2725 247.149 39.0597C247.362 38.8469 247.661 38.7192 248.044 38.7192H250.686C251.026 38.7192 251.282 38.8469 251.495 39.0597C251.708 39.2725 251.836 39.5704 251.836 39.8683C251.836 39.996 251.793 40.1662 251.751 40.2939C251.708 40.4215 251.58 40.6343 251.453 40.8471L242.505 52.8482L251.964 65.2749C252.092 65.4877 252.219 65.7004 252.262 65.8281C252.305 65.9558 252.347 66.126 252.347 66.2537C252.347 66.5941 252.219 66.8495 252.006 67.0623C251.793 67.2751 251.538 67.4027 251.197 67.4027H248.3C247.916 67.4027 247.661 67.3176 247.448 67.1474C247.235 66.9772 247.064 66.7644 246.894 66.5941L239.267 56.5081L231.556 66.6367C231.428 66.7644 231.258 66.9772 231.045 67.1474C230.832 67.3602 230.533 67.4453 230.15 67.4453H227.381Z" fill="#F9FBFB"/>
<path d="M280.76 67.4453C277.595 67.4453 274.943 66.9769 272.805 65.9976C270.666 65.0183 268.998 63.7835 267.886 62.2932C266.732 60.7604 266.133 59.185 266.047 57.4818C266.047 57.1838 266.176 56.9283 266.39 56.7154C266.646 56.5025 266.903 56.3748 267.245 56.3748H270.025C270.452 56.3748 270.795 56.5025 271.009 56.7154C271.222 56.9283 271.351 57.1838 271.436 57.4818C271.65 58.3334 272.12 59.185 272.805 60.0366C273.489 60.8881 274.473 61.5694 275.756 62.1229C277.039 62.6765 278.707 62.9319 280.76 62.9319C283.882 62.9319 286.191 62.3784 287.645 61.3139C289.099 60.2069 289.869 58.7592 289.869 56.9709C289.869 55.7361 289.484 54.7142 288.715 53.9478C287.945 53.1814 286.747 52.5001 285.122 51.904C283.54 51.3079 281.444 50.6266 278.921 49.9028C276.269 49.1364 274.088 48.3274 272.334 47.4332C270.581 46.5391 269.298 45.432 268.442 44.1121C267.587 42.7921 267.159 41.1316 267.159 39.0878C267.159 37.1717 267.673 35.426 268.742 33.9357C269.811 32.4029 271.308 31.2107 273.318 30.3165C275.328 29.4224 277.723 28.9966 280.503 28.9966C282.77 28.9966 284.737 29.2946 286.405 29.8907C288.116 30.4868 289.484 31.2533 290.639 32.2326C291.751 33.2119 292.606 34.2764 293.205 35.3834C293.804 36.4905 294.103 37.5975 294.146 38.662C294.146 38.9175 294.061 39.1729 293.89 39.3858C293.718 39.5987 293.419 39.7265 293.034 39.7265H290.126C289.869 39.7265 289.613 39.6413 289.356 39.5136C289.099 39.3858 288.886 39.0878 288.715 38.7046C288.501 37.2569 287.645 36.0221 286.191 35.0002C284.737 34.0209 282.855 33.5099 280.503 33.5099C278.151 33.5099 276.226 33.9357 274.729 34.8299C273.275 35.724 272.505 37.1291 272.505 39.0026C272.505 40.2374 272.848 41.2167 273.532 42.0257C274.216 42.8347 275.328 43.516 276.825 44.1547C278.322 44.7508 280.246 45.3894 282.641 46.0707C285.55 46.8371 287.945 47.6887 289.784 48.5403C291.623 49.4344 292.991 50.4989 293.89 51.8188C294.788 53.1388 295.215 54.7994 295.215 56.8432C295.215 59.0998 294.617 61.0159 293.419 62.5913C292.222 64.1667 290.554 65.4015 288.372 66.2531C286.277 67.0195 283.711 67.4453 280.76 67.4453Z" fill="#F9FBFB"/>
<path d="M310.199 67.4453C307.431 67.4453 305.132 66.9346 303.301 65.9132C301.47 64.8919 300.022 63.4449 299.086 61.615C298.106 59.785 297.553 57.6997 297.468 55.3591C297.425 54.7633 297.425 53.9972 297.425 53.061C297.425 52.1247 297.425 51.3587 297.468 50.8055C297.595 48.4223 298.149 46.337 299.128 44.507C300.108 42.677 301.555 41.2727 303.386 40.2513C305.217 39.2299 307.516 38.7192 310.241 38.7192C312.966 38.7192 315.223 39.2299 317.096 40.2513C318.927 41.2727 320.375 42.7196 321.354 44.507C322.334 46.337 322.887 48.4223 323.015 50.8055C323.058 51.3587 323.058 52.1247 323.058 53.061C323.058 53.9972 323.058 54.7633 323.015 55.3591C322.887 57.6997 322.376 59.785 321.397 61.615C320.418 63.4449 319.013 64.8919 317.182 65.9132C315.223 66.9346 312.924 67.4453 310.199 67.4453ZM310.199 63.3598C312.455 63.3598 314.244 62.6789 315.564 61.2745C316.884 59.8701 317.607 57.8274 317.735 55.1037C317.778 54.5505 317.778 53.9121 317.778 53.061C317.778 52.2524 317.778 51.5715 317.735 51.0182C317.607 48.3371 316.884 46.2518 315.564 44.8475C314.244 43.4431 312.413 42.7622 310.199 42.7622C307.942 42.7622 306.154 43.4431 304.791 44.8475C303.429 46.2518 302.705 48.2946 302.662 51.0182C302.62 51.5715 302.62 52.2098 302.62 53.061C302.62 53.8696 302.62 54.5505 302.662 55.1037C302.747 57.7848 303.429 59.8701 304.791 61.2745C306.154 62.6363 307.942 63.3598 310.199 63.3598Z" fill="#F9FBFB"/>
<path d="M330.913 67.4453C330.535 67.4453 330.241 67.3177 330.031 67.105C329.779 66.8498 329.695 66.5521 329.695 66.2119V43.0746H325.159C324.781 43.0746 324.487 42.947 324.277 42.7343C324.025 42.4791 323.941 42.1814 323.941 41.8412V40.0123C323.941 39.6721 324.067 39.3318 324.277 39.1191C324.529 38.8639 324.823 38.7789 325.159 38.7789H329.695V38.226C329.695 36.3971 329.989 34.7809 330.619 33.3774C331.207 31.9738 332.215 30.9105 333.559 30.1449C334.903 29.3794 336.709 28.9966 338.935 28.9966H342.169C342.505 28.9966 342.841 29.1242 343.051 29.3368C343.303 29.592 343.387 29.8897 343.387 30.23V32.0589C343.387 32.4417 343.261 32.7394 343.051 32.952C342.799 33.2072 342.505 33.2923 342.169 33.2923H339.061C337.381 33.2923 336.247 33.7176 335.617 34.6108C335.029 35.5039 334.693 36.7799 334.693 38.4386V38.7364H341.581C341.917 38.7364 342.253 38.8639 342.463 39.0766C342.715 39.3318 342.799 39.6295 342.799 39.9698V41.7986C342.799 42.1814 342.673 42.4791 342.463 42.6918C342.211 42.947 341.917 43.0321 341.581 43.0321H334.693V66.1693C334.693 66.5521 334.567 66.8498 334.357 67.0625C334.105 67.3177 333.811 67.4028 333.475 67.4028H330.913V67.4453Z" fill="#F9FBFB"/>
<path d="M358.773 67.4453C356.728 67.4453 355.109 67.0621 353.831 66.2957C352.552 65.5292 351.658 64.4222 351.061 62.9745C350.465 61.5268 350.209 59.8663 350.209 57.9076V43.0476H345.948C345.565 43.0476 345.266 42.9199 345.053 42.707C344.798 42.4515 344.713 42.1534 344.713 41.8128V39.9819C344.713 39.6413 344.84 39.3007 345.053 39.0878C345.309 38.8323 345.607 38.7471 345.948 38.7471H350.166V30.2314C350.166 29.8907 350.294 29.5501 350.507 29.3372C350.763 29.0817 351.061 28.9966 351.402 28.9966H353.959C354.299 28.9966 354.64 29.1243 354.853 29.3372C355.109 29.5927 355.194 29.8907 355.194 30.2314V38.7471H361.926C362.31 38.7471 362.651 38.8749 362.864 39.0878C363.077 39.3432 363.205 39.6413 363.205 39.9819V41.8128C363.205 42.196 363.077 42.4941 362.864 42.707C362.651 42.9624 362.352 43.0476 361.926 43.0476H355.194V57.5244C355.194 59.2276 355.492 60.5475 356.046 61.5268C356.643 62.5061 357.666 62.9745 359.157 62.9745H362.48C362.821 62.9745 363.119 63.1022 363.375 63.3151C363.631 63.5706 363.716 63.8687 363.716 64.2093V66.1679C363.716 66.5511 363.588 66.8492 363.375 67.0621C363.119 67.3176 362.821 67.4027 362.48 67.4027H358.773V67.4453Z" fill="#F9FBFB"/>
<path d="M110.043 48.2422C110.043 46.7977 110.001 45.3107 109.918 43.7388C109.834 40.4675 109.209 37.7484 107.958 35.5392C106.707 33.33 104.997 31.7156 102.828 30.611C100.659 29.5489 98.1155 28.9966 95.1962 28.9966C92.3186 28.9966 89.8163 29.5489 87.606 30.611C85.4374 31.7156 83.7275 33.33 82.4764 35.5392C81.2253 37.7484 80.558 40.4675 80.4746 43.7388C80.4329 45.3107 80.4329 46.7977 80.4329 48.2422C80.4329 49.6867 80.4329 51.1736 80.4746 52.7456C80.5997 56.0594 81.2253 58.8209 82.4347 60.9876C83.6024 63.1968 85.3123 64.8112 87.4809 65.8309C89.6495 66.893 92.2352 67.4028 95.2379 67.4028C97.7401 67.4028 99.9504 66.978 101.869 66.1283L102.411 66.808C102.745 67.1904 103.203 67.4453 103.704 67.4453H106.581C107.457 67.4453 107.958 66.4681 107.457 65.7459L106.081 63.7066C108.458 61.285 109.751 57.6313 109.918 52.7456C110.001 51.2161 110.043 49.6867 110.043 48.2422ZM95.1962 62.8994C92.5271 62.8994 90.3585 62.0922 88.6069 60.4353C86.8554 58.7784 85.9379 56.1443 85.771 52.4907C85.7293 50.8762 85.7293 49.4742 85.7293 48.1997C85.7293 46.9251 85.7293 45.5232 85.771 43.9512C85.8962 41.4871 86.3549 39.4903 87.1473 37.9609C87.9814 36.4314 89.0657 35.3268 90.4836 34.6046C91.9016 33.8823 93.4446 33.5425 95.1962 33.5425C96.9895 33.5425 98.6159 33.8823 99.9921 34.6046C101.368 35.3268 102.494 36.4314 103.328 37.9609C104.163 39.4903 104.621 41.4871 104.705 43.9512C104.788 45.5232 104.83 46.9251 104.83 48.1997C104.83 49.4742 104.788 50.8762 104.705 52.4907C104.58 56.1443 103.62 58.8209 101.869 60.4353C100.117 62.0922 97.9069 62.8994 95.1962 62.8994Z" fill="#F9FBFB"/>
</svg>
