<svg width="138" height="53" viewBox="0 0 138 53" fill="none" xmlns="http://www.w3.org/2000/svg">
<path d="M25 16.9495C25 15.7473 24.9648 14.5097 24.8944 13.2014C24.8239 10.4788 24.2958 8.21577 23.2394 6.3771C22.1831 4.53842 20.7394 3.19478 18.9084 2.27544C17.0775 1.39146 14.9296 0.931793 12.4648 0.931793C10.0352 0.931793 7.92253 1.39146 6.05634 2.27544C4.22535 3.19478 2.78169 4.53842 1.72535 6.3771C0.669015 8.21577 0.105633 10.4788 0.0352107 13.2014C-5.36442e-07 14.5097 0 15.7473 0 16.9495C0 18.1517 -5.36442e-07 19.3893 0.0352107 20.6975C0.140845 23.4556 0.669015 25.7539 1.69014 27.5572C2.67606 29.3959 4.11972 30.7395 5.9507 31.5881C7.78169 32.4721 9.96479 32.8964 12.5 32.8964C14.6127 32.8964 16.4789 32.5428 18.0986 31.8357L18.5563 32.4014C18.838 32.7196 19.2254 32.9318 19.6479 32.9318H22.0775C22.8169 32.9318 23.2394 32.1185 22.8169 31.5174L21.6549 29.8202C23.662 27.8047 24.7535 24.7638 24.8944 20.6975C24.9648 19.4246 25 18.1517 25 16.9495ZM12.4648 29.1484C10.2113 29.1484 8.38028 28.4765 6.90141 27.0975C5.42254 25.7185 4.64789 23.5263 4.50704 20.4854C4.47183 19.1417 4.47183 17.9749 4.47183 16.9141C4.47183 15.8533 4.47183 14.6865 4.50704 13.3782C4.61268 11.3274 5 9.66549 5.66902 8.39257C6.37324 7.11964 7.28873 6.2003 8.48592 5.5992C9.6831 4.99809 10.9859 4.71522 12.4648 4.71522C13.9789 4.71522 15.3521 4.99809 16.5141 5.5992C17.6761 6.2003 18.6268 7.11964 19.331 8.39257C20.0352 9.66549 20.4225 11.3274 20.493 13.3782C20.5634 14.6865 20.5986 15.8533 20.5986 16.9141C20.5986 17.9749 20.5634 19.1417 20.493 20.4854C20.3873 23.5263 19.5775 25.7539 18.0986 27.0975C16.6197 28.4765 14.7535 29.1484 12.4648 29.1484Z" fill="#2D3748"/>
<circle cx="20.4688" cy="29.5682" r="5.5" fill="#C3AC6F" stroke="white" stroke-width="4"/>
<path d="M41.486 33.4882C39.05 33.4882 37.006 33.1242 35.354 32.3962C33.702 31.6402 32.428 30.6742 31.532 29.4982C30.664 28.2942 30.202 27.0202 30.146 25.6762C30.146 25.4522 30.23 25.2562 30.398 25.0882C30.594 24.8922 30.818 24.7942 31.07 24.7942H33.212C33.548 24.7942 33.8 24.8782 33.968 25.0462C34.136 25.2142 34.248 25.4102 34.304 25.6342C34.444 26.3062 34.78 26.9782 35.312 27.6502C35.872 28.2942 36.642 28.8402 37.622 29.2882C38.63 29.7082 39.918 29.9182 41.486 29.9182C43.894 29.9182 45.658 29.4982 46.778 28.6582C47.926 27.7902 48.5 26.6422 48.5 25.2142C48.5 24.2342 48.192 23.4502 47.576 22.8622C46.988 22.2462 46.078 21.7002 44.846 21.2242C43.614 20.7482 42.018 20.2302 40.058 19.6702C38.014 19.0822 36.32 18.4382 34.976 17.7382C33.632 17.0382 32.624 16.1702 31.952 15.1342C31.308 14.0982 30.986 12.7822 30.986 11.1862C30.986 9.67421 31.392 8.3302 32.204 7.1542C33.016 5.95021 34.178 4.99821 35.69 4.2982C37.23 3.5982 39.092 3.24821 41.276 3.24821C43.012 3.24821 44.524 3.48621 45.812 3.96221C47.128 4.41021 48.22 5.0262 49.088 5.8102C49.956 6.56621 50.614 7.39221 51.062 8.28821C51.51 9.15621 51.748 10.0102 51.776 10.8502C51.776 11.0462 51.706 11.2422 51.566 11.4382C51.426 11.6062 51.202 11.6902 50.894 11.6902H48.668C48.472 11.6902 48.262 11.6342 48.038 11.5222C47.842 11.4102 47.688 11.2002 47.576 10.8922C47.408 9.74421 46.764 8.77821 45.644 7.99421C44.524 7.21021 43.068 6.81821 41.276 6.81821C39.456 6.81821 37.972 7.16821 36.824 7.86821C35.704 8.56821 35.144 9.66021 35.144 11.1442C35.144 12.0962 35.41 12.8942 35.942 13.5382C36.474 14.1542 37.314 14.7002 38.462 15.1762C39.61 15.6522 41.108 16.1562 42.956 16.6882C45.196 17.3042 47.03 17.9622 48.458 18.6622C49.886 19.3342 50.936 20.1882 51.608 21.2242C52.308 22.2322 52.658 23.5342 52.658 25.1302C52.658 26.8942 52.196 28.4062 51.272 29.6662C50.348 30.8982 49.046 31.8502 47.366 32.5222C45.714 33.1662 43.754 33.4882 41.486 33.4882ZM55.6849 41.0482C55.4049 41.0482 55.1669 40.9502 54.9709 40.7542C54.8029 40.5862 54.7189 40.3622 54.7189 40.0822V12.1942C54.7189 11.9142 54.8029 11.6902 54.9709 11.5222C55.1669 11.3262 55.4049 11.2282 55.6849 11.2282H57.6169C57.8969 11.2282 58.1209 11.3262 58.2889 11.5222C58.4849 11.6902 58.5829 11.9142 58.5829 12.1942V14.0422C59.2549 13.1182 60.1509 12.3482 61.2709 11.7322C62.3909 11.1162 63.7909 10.8082 65.4709 10.8082C67.0389 10.8082 68.3689 11.0742 69.4609 11.6062C70.5809 12.1382 71.4909 12.8662 72.1909 13.7902C72.9189 14.7142 73.4649 15.7642 73.8289 16.9402C74.1929 18.1162 74.3889 19.3762 74.4169 20.7202C74.4449 21.1682 74.4589 21.6442 74.4589 22.1482C74.4589 22.6522 74.4449 23.1282 74.4169 23.5762C74.3889 24.8922 74.1929 26.1522 73.8289 27.3562C73.4649 28.5322 72.9189 29.5822 72.1909 30.5062C71.4909 31.4022 70.5809 32.1302 69.4609 32.6902C68.3689 33.2222 67.0389 33.4882 65.4709 33.4882C63.8469 33.4882 62.4749 33.1942 61.3549 32.6062C60.2629 31.9902 59.3669 31.2342 58.6669 30.3382V40.0822C58.6669 40.3622 58.5829 40.5862 58.4149 40.7542C58.2469 40.9502 58.0089 41.0482 57.7009 41.0482H55.6849ZM64.5889 30.0862C66.0449 30.0862 67.1789 29.7782 67.9909 29.1622C68.8309 28.5182 69.4329 27.6922 69.7969 26.6842C70.1609 25.6482 70.3709 24.5422 70.4269 23.3662C70.4549 22.5542 70.4549 21.7422 70.4269 20.9302C70.3709 19.7542 70.1609 18.6622 69.7969 17.6542C69.4329 16.6182 68.8309 15.7922 67.9909 15.1762C67.1789 14.5322 66.0449 14.2102 64.5889 14.2102C63.2169 14.2102 62.0969 14.5322 61.2289 15.1762C60.3889 15.8202 59.7589 16.6462 59.3389 17.6542C58.9469 18.6342 58.7229 19.6422 58.6669 20.6782C58.6389 21.1262 58.6249 21.6582 58.6249 22.2742C58.6249 22.8902 58.6389 23.4362 58.6669 23.9122C58.6949 24.8922 58.9189 25.8582 59.3389 26.8102C59.7869 27.7622 60.4449 28.5462 61.3129 29.1622C62.1809 29.7782 63.2729 30.0862 64.5889 30.0862ZM82.8464 33.4882C81.4464 33.4882 80.1724 33.2082 79.0244 32.6482C77.8764 32.0882 76.9524 31.3322 76.2524 30.3802C75.5524 29.4282 75.2024 28.3502 75.2024 27.1462C75.2024 25.2142 75.9864 23.6742 77.5544 22.5262C79.1224 21.3782 81.1664 20.6222 83.6864 20.2582L89.9444 19.3762V18.1582C89.9444 16.8142 89.5524 15.7642 88.7684 15.0082C88.0124 14.2522 86.7664 13.8742 85.0304 13.8742C83.7704 13.8742 82.7484 14.1262 81.9644 14.6302C81.2084 15.1342 80.6764 15.7782 80.3684 16.5622C80.2004 16.9822 79.9064 17.1922 79.4864 17.1922H77.5964C77.2884 17.1922 77.0504 17.1082 76.8824 16.9402C76.7424 16.7442 76.6724 16.5202 76.6724 16.2682C76.6724 15.8482 76.8264 15.3302 77.1344 14.7142C77.4704 14.0982 77.9744 13.4962 78.6464 12.9082C79.3184 12.3202 80.1724 11.8302 81.2084 11.4382C82.2724 11.0182 83.5604 10.8082 85.0724 10.8082C86.7524 10.8082 88.1664 11.0322 89.3144 11.4802C90.4624 11.9002 91.3584 12.4742 92.0024 13.2022C92.6744 13.9302 93.1504 14.7562 93.4304 15.6802C93.7384 16.6042 93.8924 17.5422 93.8924 18.4942V32.1022C93.8924 32.3822 93.7944 32.6202 93.5984 32.8162C93.4304 32.9842 93.2064 33.0682 92.9264 33.0682H90.9944C90.6864 33.0682 90.4484 32.9842 90.2804 32.8162C90.1124 32.6202 90.0284 32.3822 90.0284 32.1022V30.2962C89.6644 30.8002 89.1744 31.3042 88.5584 31.8082C87.9424 32.2842 87.1724 32.6902 86.2484 33.0262C85.3244 33.3342 84.1904 33.4882 82.8464 33.4882ZM83.7284 30.3382C84.8764 30.3382 85.9264 30.1002 86.8784 29.6242C87.8304 29.1202 88.5724 28.3502 89.1044 27.3142C89.6644 26.2782 89.9444 24.9762 89.9444 23.4082V22.2322L85.0724 22.9462C83.0844 23.2262 81.5864 23.7022 80.5784 24.3742C79.5704 25.0182 79.0664 25.8442 79.0664 26.8522C79.0664 27.6362 79.2904 28.2942 79.7384 28.8262C80.2144 29.3302 80.8024 29.7082 81.5024 29.9602C82.2304 30.2122 82.9724 30.3382 83.7284 30.3382ZM105.81 33.4882C103.822 33.4882 102.1 33.1102 100.644 32.3542C99.2163 31.5702 98.1103 30.4642 97.3263 29.0362C96.5423 27.5802 96.1223 25.8442 96.0663 23.8282C96.0383 23.4082 96.0243 22.8482 96.0243 22.1482C96.0243 21.4482 96.0383 20.8882 96.0663 20.4682C96.1223 18.4522 96.5423 16.7302 97.3263 15.3022C98.1103 13.8462 99.2163 12.7402 100.644 11.9842C102.1 11.2002 103.822 10.8082 105.81 10.8082C107.434 10.8082 108.82 11.0322 109.968 11.4802C111.144 11.9282 112.11 12.5022 112.866 13.2022C113.622 13.9022 114.182 14.6582 114.546 15.4702C114.938 16.2822 115.148 17.0522 115.176 17.7802C115.204 18.0602 115.12 18.2842 114.924 18.4522C114.728 18.6202 114.49 18.7042 114.21 18.7042H112.194C111.914 18.7042 111.704 18.6482 111.564 18.5362C111.424 18.3962 111.284 18.1722 111.144 17.8642C110.64 16.4922 109.954 15.5262 109.086 14.9662C108.218 14.4062 107.14 14.1262 105.852 14.1262C104.172 14.1262 102.8 14.6442 101.736 15.6802C100.7 16.7162 100.14 18.3822 100.056 20.6782C100.028 21.6862 100.028 22.6662 100.056 23.6182C100.14 25.9422 100.7 27.6222 101.736 28.6582C102.8 29.6662 104.172 30.1702 105.852 30.1702C107.14 30.1702 108.218 29.8902 109.086 29.3302C109.954 28.7702 110.64 27.8042 111.144 26.4322C111.284 26.1242 111.424 25.9142 111.564 25.8022C111.704 25.6622 111.914 25.5922 112.194 25.5922H114.21C114.49 25.5922 114.728 25.6762 114.924 25.8442C115.12 26.0122 115.204 26.2362 115.176 26.5162C115.148 27.1042 115.022 27.7062 114.798 28.3222C114.574 28.9382 114.21 29.5682 113.706 30.2122C113.23 30.8282 112.628 31.3882 111.9 31.8922C111.172 32.3682 110.29 32.7602 109.254 33.0682C108.246 33.3482 107.098 33.4882 105.81 33.4882ZM125.918 33.4882C123.034 33.4882 120.738 32.6062 119.03 30.8422C117.322 29.0502 116.384 26.6142 116.216 23.5342C116.188 23.1702 116.174 22.7082 116.174 22.1482C116.174 21.5602 116.188 21.0842 116.216 20.7202C116.328 18.7322 116.79 16.9962 117.602 15.5122C118.414 14.0002 119.52 12.8382 120.92 12.0262C122.348 11.2142 124.014 10.8082 125.918 10.8082C128.046 10.8082 129.824 11.2562 131.252 12.1522C132.708 13.0482 133.814 14.3222 134.57 15.9742C135.326 17.6262 135.704 19.5582 135.704 21.7702V22.4842C135.704 22.7922 135.606 23.0302 135.41 23.1982C135.242 23.3662 135.018 23.4502 134.738 23.4502H120.206C120.206 23.4782 120.206 23.5342 120.206 23.6182C120.206 23.7022 120.206 23.7722 120.206 23.8282C120.262 24.9762 120.514 26.0542 120.962 27.0622C121.41 28.0422 122.054 28.8402 122.894 29.4562C123.734 30.0722 124.742 30.3802 125.918 30.3802C126.926 30.3802 127.766 30.2262 128.438 29.9182C129.11 29.6102 129.656 29.2742 130.076 28.9102C130.496 28.5182 130.776 28.2242 130.916 28.0282C131.168 27.6642 131.364 27.4542 131.504 27.3982C131.644 27.3142 131.868 27.2722 132.176 27.2722H134.192C134.472 27.2722 134.696 27.3562 134.864 27.5242C135.06 27.6642 135.144 27.8742 135.116 28.1542C135.088 28.5742 134.864 29.0922 134.444 29.7082C134.024 30.2962 133.422 30.8842 132.638 31.4722C131.854 32.0602 130.902 32.5502 129.782 32.9422C128.662 33.3062 127.374 33.4882 125.918 33.4882ZM120.206 20.5522H131.714V20.4262C131.714 19.1662 131.476 18.0462 131 17.0662C130.552 16.0862 129.894 15.3162 129.026 14.7562C128.158 14.1682 127.122 13.8742 125.918 13.8742C124.714 13.8742 123.678 14.1682 122.81 14.7562C121.97 15.3162 121.326 16.0862 120.878 17.0662C120.43 18.0462 120.206 19.1662 120.206 20.4262V20.5522Z" fill="#2D3748"/>
<path d="M11.1909 52.0018V44.2782H12.1255V45.202H12.2114C12.3296 44.9872 12.4782 44.8045 12.6572 44.6541C12.8363 44.5002 13.0404 44.382 13.2695 44.2997C13.4987 44.2173 13.7476 44.1761 14.0161 44.1761C14.5067 44.1761 14.9328 44.3014 15.2944 44.5521C15.6597 44.7992 15.9425 45.1465 16.1431 45.5941C16.3436 46.0417 16.4438 46.5663 16.4438 47.1678V47.1786C16.4438 47.7837 16.3436 48.3101 16.1431 48.7577C15.9425 49.2053 15.6597 49.5526 15.2944 49.7997C14.9328 50.0467 14.5067 50.1703 14.0161 50.1703C13.7511 50.1703 13.5005 50.1291 13.2642 50.0467C13.0314 49.9608 12.8237 49.8426 12.6411 49.6922C12.4621 49.5418 12.3188 49.3628 12.2114 49.1551H12.1255V52.0018H11.1909ZM13.8013 49.3431C14.1558 49.3431 14.4583 49.2572 14.709 49.0853C14.9596 48.9098 15.1512 48.661 15.2837 48.3387C15.4198 48.0129 15.4878 47.6261 15.4878 47.1786V47.1678C15.4878 46.7166 15.4198 46.3299 15.2837 46.0077C15.1512 45.6854 14.9596 45.4383 14.709 45.2664C14.4583 45.091 14.1558 45.0033 13.8013 45.0033C13.4504 45.0033 13.1478 45.091 12.8936 45.2664C12.6393 45.4419 12.4442 45.6908 12.3081 46.013C12.172 46.3353 12.104 46.7202 12.104 47.1678V47.1786C12.104 47.6226 12.172 48.0075 12.3081 48.3333C12.4442 48.6556 12.6393 48.9045 12.8936 49.0799C13.1478 49.2554 13.4504 49.3431 13.8013 49.3431ZM19.7842 50.1703C19.2363 50.1703 18.7619 50.0503 18.3608 49.8104C17.9634 49.5669 17.6554 49.2214 17.437 48.7738C17.2222 48.3262 17.1147 47.7944 17.1147 47.1786V47.1678C17.1147 46.5484 17.2222 46.0148 17.437 45.5672C17.6554 45.1196 17.9634 44.7759 18.3608 44.536C18.7619 44.2961 19.2363 44.1761 19.7842 44.1761C20.3356 44.1761 20.8101 44.2961 21.2075 44.536C21.605 44.7759 21.9111 45.1196 22.126 45.5672C22.3444 46.0148 22.4536 46.5484 22.4536 47.1678V47.1786C22.4536 47.7944 22.3444 48.3262 22.126 48.7738C21.9111 49.2214 21.605 49.5669 21.2075 49.8104C20.8101 50.0503 20.3356 50.1703 19.7842 50.1703ZM19.7842 49.3431C20.1494 49.3431 20.4591 49.2572 20.7134 49.0853C20.9676 48.9134 21.161 48.6664 21.2935 48.3441C21.4295 48.0218 21.4976 47.6333 21.4976 47.1786V47.1678C21.4976 46.7095 21.4295 46.3192 21.2935 45.9969C21.161 45.6747 20.9676 45.4294 20.7134 45.2611C20.4591 45.0892 20.1494 45.0033 19.7842 45.0033C19.4189 45.0033 19.1092 45.0892 18.855 45.2611C18.6007 45.4294 18.4056 45.6747 18.2695 45.9969C18.137 46.3192 18.0708 46.7095 18.0708 47.1678V47.1786C18.0708 47.6333 18.137 48.0218 18.2695 48.3441C18.4056 48.6664 18.6007 48.9134 18.855 49.0853C19.1092 49.2572 19.4189 49.3431 19.7842 49.3431ZM24.3062 50.0682L22.6841 44.2782H23.6187L24.7573 48.9081H24.8433L26.1377 44.2782H27.0239L28.3184 48.9081H28.4043L29.543 44.2782H30.4722L28.8501 50.0682H27.9102L26.6157 45.5887H26.5298L25.2407 50.0682H24.3062ZM33.356 50.1703C32.8045 50.1703 32.3301 50.0485 31.9326 49.805C31.5387 49.5615 31.2344 49.2178 31.0195 48.7738C30.8083 48.3262 30.7026 47.7998 30.7026 47.1947V47.1893C30.7026 46.5913 30.8083 46.0667 31.0195 45.6156C31.2344 45.1644 31.5369 44.8117 31.9272 44.5575C32.3175 44.3032 32.7741 44.1761 33.2969 44.1761C33.8232 44.1761 34.2744 44.2979 34.6504 44.5414C35.0299 44.7848 35.32 45.125 35.5205 45.5619C35.7246 45.9951 35.8267 46.5 35.8267 47.0765V47.4417H31.186V46.6952H35.3486L34.8867 47.3773V47.0067C34.8867 46.5519 34.8187 46.1777 34.6826 45.8841C34.5465 45.5905 34.3586 45.3721 34.1187 45.2289C33.8787 45.082 33.603 45.0086 33.2915 45.0086C32.98 45.0086 32.7007 45.0856 32.4536 45.2396C32.2101 45.39 32.0168 45.6138 31.8735 45.911C31.7303 46.2082 31.6587 46.5734 31.6587 47.0067V47.3773C31.6587 47.7891 31.7285 48.1418 31.8682 48.4354C32.0078 48.7254 32.2065 48.9492 32.4644 49.1068C32.7222 49.2608 33.0265 49.3377 33.3774 49.3377C33.6388 49.3377 33.8662 49.3019 34.0596 49.2303C34.2529 49.1587 34.4123 49.0674 34.5376 48.9564C34.6629 48.8454 34.7507 48.7326 34.8008 48.618L34.8223 48.5697H35.7568L35.7461 48.6126C35.696 48.8096 35.6064 49.0011 35.4775 49.1873C35.3522 49.37 35.1893 49.5365 34.9888 49.6869C34.7882 49.8337 34.5501 49.9518 34.2744 50.0414C34.0023 50.1273 33.6961 50.1703 33.356 50.1703ZM36.7769 50.0682V44.2782H37.7114V45.1375H37.7974C37.9084 44.8332 38.0964 44.5969 38.3613 44.4286C38.6263 44.2603 38.9539 44.1761 39.3442 44.1761C39.4338 44.1761 39.5215 44.1815 39.6074 44.1922C39.6969 44.1994 39.765 44.2066 39.8115 44.2137V45.1214C39.7148 45.1035 39.62 45.091 39.5269 45.0838C39.4373 45.0731 39.3407 45.0677 39.2368 45.0677C38.9396 45.0677 38.6764 45.1268 38.4473 45.245C38.2181 45.3631 38.0373 45.5278 37.9048 45.7391C37.7759 45.9504 37.7114 46.1974 37.7114 46.4803V50.0682H36.7769ZM42.6685 50.1703C42.117 50.1703 41.6426 50.0485 41.2451 49.805C40.8512 49.5615 40.5469 49.2178 40.332 48.7738C40.1208 48.3262 40.0151 47.7998 40.0151 47.1947V47.1893C40.0151 46.5913 40.1208 46.0667 40.332 45.6156C40.5469 45.1644 40.8494 44.8117 41.2397 44.5575C41.63 44.3032 42.0866 44.1761 42.6094 44.1761C43.1357 44.1761 43.5869 44.2979 43.9629 44.5414C44.3424 44.7848 44.6325 45.125 44.833 45.5619C45.0371 45.9951 45.1392 46.5 45.1392 47.0765V47.4417H40.4985V46.6952H44.6611L44.1992 47.3773V47.0067C44.1992 46.5519 44.1312 46.1777 43.9951 45.8841C43.859 45.5905 43.6711 45.3721 43.4312 45.2289C43.1912 45.082 42.9155 45.0086 42.604 45.0086C42.2925 45.0086 42.0132 45.0856 41.7661 45.2396C41.5226 45.39 41.3293 45.6138 41.186 45.911C41.0428 46.2082 40.9712 46.5734 40.9712 47.0067V47.3773C40.9712 47.7891 41.041 48.1418 41.1807 48.4354C41.3203 48.7254 41.519 48.9492 41.7769 49.1068C42.0347 49.2608 42.339 49.3377 42.6899 49.3377C42.9513 49.3377 43.1787 49.3019 43.3721 49.2303C43.5654 49.1587 43.7248 49.0674 43.8501 48.9564C43.9754 48.8454 44.0632 48.7326 44.1133 48.618L44.1348 48.5697H45.0693L45.0586 48.6126C45.0085 48.8096 44.9189 49.0011 44.79 49.1873C44.6647 49.37 44.5018 49.5365 44.3013 49.6869C44.1007 49.8337 43.8626 49.9518 43.5869 50.0414C43.3148 50.1273 43.0086 50.1703 42.6685 50.1703ZM48.2271 50.1703C47.7401 50.1703 47.314 50.0467 46.9487 49.7997C46.5835 49.5526 46.3006 49.2053 46.1001 48.7577C45.8996 48.3065 45.7993 47.7801 45.7993 47.1786V47.1678C45.7993 46.5627 45.8996 46.0363 46.1001 45.5887C46.3006 45.1411 46.5817 44.7938 46.9434 44.5467C47.3086 44.2997 47.7365 44.1761 48.2271 44.1761C48.6245 44.1761 48.9844 44.2692 49.3066 44.4554C49.6325 44.638 49.8742 44.8833 50.0317 45.1913H50.1177V41.9793H51.0522V50.0682H50.1177V49.1444H50.0317C49.8563 49.4666 49.6128 49.7191 49.3013 49.9017C48.9897 50.0807 48.6317 50.1703 48.2271 50.1703ZM48.4419 49.3431C48.7928 49.3431 49.0954 49.2554 49.3496 49.0799C49.6038 48.9045 49.799 48.6556 49.9351 48.3333C50.0711 48.0075 50.1392 47.6226 50.1392 47.1786V47.1678C50.1392 46.7202 50.0711 46.3353 49.9351 46.013C49.799 45.6908 49.6038 45.4419 49.3496 45.2664C49.0954 45.091 48.7928 45.0033 48.4419 45.0033C48.091 45.0033 47.7884 45.091 47.5342 45.2664C47.2835 45.4383 47.0902 45.6854 46.9541 46.0077C46.8216 46.3299 46.7554 46.7166 46.7554 47.1678V47.1786C46.7554 47.6261 46.8216 48.0129 46.9541 48.3387C47.0902 48.661 47.2835 48.9098 47.5342 49.0853C47.7884 49.2572 48.091 49.3431 48.4419 49.3431ZM57.8188 50.1703C57.4178 50.1703 57.0615 50.0807 56.75 49.9017C56.4385 49.7191 56.1932 49.4666 56.0142 49.1444H55.9282V50.0682H54.9937V41.9793H55.9282V45.1913H56.0142C56.1717 44.8833 56.4116 44.638 56.7339 44.4554C57.0597 44.2692 57.4214 44.1761 57.8188 44.1761C58.3094 44.1761 58.7355 44.2997 59.0972 44.5467C59.4624 44.7938 59.7453 45.1411 59.9458 45.5887C60.1463 46.0363 60.2466 46.5627 60.2466 47.1678V47.1786C60.2466 47.7801 60.1463 48.3065 59.9458 48.7577C59.7453 49.2053 59.4624 49.5526 59.0972 49.7997C58.7355 50.0467 58.3094 50.1703 57.8188 50.1703ZM57.604 49.3431C57.9585 49.3431 58.2611 49.2572 58.5117 49.0853C58.7624 48.9098 58.9539 48.661 59.0864 48.3387C59.2225 48.0129 59.2905 47.6261 59.2905 47.1786V47.1678C59.2905 46.7166 59.2225 46.3299 59.0864 46.0077C58.9539 45.6854 58.7624 45.4383 58.5117 45.2664C58.2611 45.091 57.9585 45.0033 57.604 45.0033C57.2531 45.0033 56.9505 45.091 56.6963 45.2664C56.4421 45.4419 56.2469 45.6908 56.1108 46.013C55.9748 46.3353 55.9067 46.7202 55.9067 47.1678V47.1786C55.9067 47.6226 55.9748 48.0075 56.1108 48.3333C56.2469 48.6556 56.4421 48.9045 56.6963 49.0799C56.9505 49.2554 57.2531 49.3431 57.604 49.3431ZM61.4761 52.0985C61.4152 52.0985 61.3472 52.0949 61.272 52.0877C61.1968 52.0842 61.127 52.077 61.0625 52.0663V51.2982C61.1198 51.3089 61.1825 51.3161 61.2505 51.3197C61.3185 51.3233 61.3848 51.325 61.4492 51.325C61.7142 51.325 61.9308 51.257 62.0991 51.1209C62.271 50.9849 62.4089 50.7503 62.5127 50.4173L62.6201 50.0736L60.4771 44.2782H61.4761L63.2593 49.6278L62.8887 49.0423H63.3291L62.9585 49.6278L64.7363 44.2782H65.7192L63.458 50.4227C63.2969 50.856 63.1286 51.1943 62.9531 51.4378C62.7812 51.6813 62.5771 51.8514 62.3408 51.9481C62.1081 52.0484 61.8198 52.0985 61.4761 52.0985ZM72.4214 50.2508C71.6802 50.2508 71.0446 50.0861 70.5146 49.7567C69.9847 49.4237 69.5765 48.9528 69.29 48.3441C69.0072 47.7354 68.8657 47.0192 68.8657 46.1956V46.1849C68.8657 45.3542 69.009 44.6362 69.2954 44.0311C69.5854 43.426 69.9954 42.9587 70.5254 42.6292C71.0589 42.2998 71.6909 42.1351 72.4214 42.1351C73.1554 42.1351 73.7874 42.2998 74.3174 42.6292C74.8509 42.9587 75.2609 43.4277 75.5474 44.0365C75.8338 44.6416 75.9771 45.3578 75.9771 46.1849V46.1956C75.9771 47.0192 75.8338 47.7354 75.5474 48.3441C75.2645 48.9492 74.8563 49.4183 74.3228 49.7513C73.7928 50.0843 73.159 50.2508 72.4214 50.2508ZM72.4214 49.3592C72.9513 49.3592 73.4079 49.2285 73.791 48.9671C74.1742 48.7057 74.4696 48.3387 74.6772 47.8661C74.8849 47.3898 74.9888 46.833 74.9888 46.1956V46.1849C74.9888 45.5404 74.8849 44.9818 74.6772 44.5091C74.4696 44.0365 74.1742 43.6712 73.791 43.4134C73.4079 43.1556 72.9513 43.0267 72.4214 43.0267C71.895 43.0267 71.4403 43.1556 71.0571 43.4134C70.674 43.6712 70.3768 44.0365 70.1655 44.5091C69.9578 44.9818 69.854 45.5404 69.854 46.1849V46.1956C69.854 46.833 69.9561 47.3898 70.1602 47.8661C70.3643 48.3387 70.6579 48.7057 71.041 48.9671C71.4242 49.2285 71.8843 49.3592 72.4214 49.3592ZM74.5269 50.9437L72.2764 47.8499H73.3613L75.6118 50.9437H74.5269ZM78.9736 50.1703C78.5368 50.1703 78.1698 50.0879 77.8726 49.9232C77.5754 49.7549 77.3516 49.5114 77.2012 49.1927C77.0544 48.8705 76.981 48.4819 76.981 48.0272V44.2782H77.9155V47.8016C77.9155 48.3208 78.0158 48.7075 78.2163 48.9618C78.4204 49.216 78.7534 49.3431 79.2153 49.3431C79.5555 49.3431 79.842 49.2769 80.0747 49.1444C80.3075 49.0119 80.4829 48.8239 80.6011 48.5804C80.7192 48.3333 80.7783 48.0415 80.7783 47.7049V44.2782H81.7129V50.0682H80.7783V49.2035H80.6924C80.5492 49.5114 80.3325 49.7495 80.0425 49.9178C79.756 50.0861 79.3997 50.1703 78.9736 50.1703ZM84.5483 50.1703C84.1831 50.1703 83.8537 50.1004 83.5601 49.9608C83.27 49.8211 83.0391 49.6224 82.8672 49.3646C82.6989 49.1068 82.6147 48.8024 82.6147 48.4515V48.4408C82.6147 47.9251 82.7974 47.5223 83.1626 47.2323C83.5314 46.9386 84.0524 46.7721 84.7256 46.7328L86.8525 46.6039V47.3504L84.8384 47.4793C84.3979 47.5044 84.0757 47.5957 83.8716 47.7533C83.6711 47.9108 83.5708 48.1328 83.5708 48.4193V48.43C83.5708 48.7236 83.6818 48.9528 83.9038 49.1175C84.1258 49.2787 84.4051 49.3592 84.7417 49.3592C85.0604 49.3592 85.3433 49.2966 85.5903 49.1712C85.8374 49.0423 86.0308 48.8687 86.1704 48.6502C86.3136 48.4318 86.3853 48.1847 86.3853 47.909V46.1043C86.3853 45.7463 86.276 45.4741 86.0576 45.2879C85.8428 45.0982 85.5187 45.0033 85.0854 45.0033C84.7381 45.0033 84.4535 45.0659 84.2314 45.1913C84.0094 45.313 83.8608 45.4867 83.7856 45.7122L83.7803 45.7284H82.8457L82.8511 45.6961C82.9012 45.3918 83.0265 45.1268 83.2271 44.9012C83.4312 44.672 83.6943 44.4948 84.0166 44.3695C84.3389 44.2406 84.7059 44.1761 85.1177 44.1761C85.5903 44.1761 85.9896 44.2531 86.3154 44.4071C86.6449 44.561 86.8937 44.7831 87.062 45.0731C87.2339 45.3595 87.3198 45.7033 87.3198 46.1043V50.0682H86.3853V49.2142H86.2993C86.1776 49.4183 86.029 49.592 85.8535 49.7352C85.6816 49.8784 85.4865 49.9876 85.2681 50.0628C85.0496 50.1345 84.8097 50.1703 84.5483 50.1703ZM90.6655 50.1703C90.1785 50.1703 89.7524 50.0467 89.3872 49.7997C89.022 49.5526 88.7391 49.2053 88.5386 48.7577C88.3381 48.3065 88.2378 47.7801 88.2378 47.1786V47.1678C88.2378 46.5627 88.3381 46.0363 88.5386 45.5887C88.7391 45.1411 89.0202 44.7938 89.3818 44.5467C89.7471 44.2997 90.175 44.1761 90.6655 44.1761C91.063 44.1761 91.4229 44.2692 91.7451 44.4554C92.071 44.638 92.3127 44.8833 92.4702 45.1913H92.5562V41.9793H93.4907V50.0682H92.5562V49.1444H92.4702C92.2948 49.4666 92.0513 49.7191 91.7397 49.9017C91.4282 50.0807 91.0701 50.1703 90.6655 50.1703ZM90.8804 49.3431C91.2313 49.3431 91.5339 49.2554 91.7881 49.0799C92.0423 48.9045 92.2375 48.6556 92.3735 48.3333C92.5096 48.0075 92.5776 47.6226 92.5776 47.1786V47.1678C92.5776 46.7202 92.5096 46.3353 92.3735 46.013C92.2375 45.6908 92.0423 45.4419 91.7881 45.2664C91.5339 45.091 91.2313 45.0033 90.8804 45.0033C90.5295 45.0033 90.2269 45.091 89.9727 45.2664C89.722 45.4383 89.5286 45.6854 89.3926 46.0077C89.2601 46.3299 89.1938 46.7166 89.1938 47.1678V47.1786C89.1938 47.6261 89.2601 48.0129 89.3926 48.3387C89.5286 48.661 89.722 48.9098 89.9727 49.0853C90.2269 49.2572 90.5295 49.3431 90.8804 49.3431ZM94.7847 50.0682V44.2782H95.7192V45.1375H95.8052C95.9162 44.8332 96.1042 44.5969 96.3691 44.4286C96.6341 44.2603 96.9618 44.1761 97.3521 44.1761C97.4416 44.1761 97.5293 44.1815 97.6152 44.1922C97.7048 44.1994 97.7728 44.2066 97.8193 44.2137V45.1214C97.7227 45.1035 97.6278 45.091 97.5347 45.0838C97.4451 45.0731 97.3485 45.0677 97.2446 45.0677C96.9474 45.0677 96.6842 45.1268 96.4551 45.245C96.2259 45.3631 96.0451 45.5278 95.9126 45.7391C95.7837 45.9504 95.7192 46.1974 95.7192 46.4803V50.0682H94.7847ZM98.4956 50.0682V44.2782H99.4302V50.0682H98.4956ZM98.9683 43.161C98.7928 43.161 98.6406 43.0983 98.5117 42.973C98.3864 42.8441 98.3237 42.6919 98.3237 42.5164C98.3237 42.3374 98.3864 42.1852 98.5117 42.0599C98.6406 41.9346 98.7928 41.8719 98.9683 41.8719C99.1473 41.8719 99.2995 41.9346 99.4248 42.0599C99.5501 42.1852 99.6128 42.3374 99.6128 42.5164C99.6128 42.6919 99.5501 42.8441 99.4248 42.973C99.2995 43.0983 99.1473 43.161 98.9683 43.161ZM100.23 50.0682L102.212 47.1732L100.208 44.2782H101.31L102.685 46.432H102.771L104.129 44.2782H105.177L103.211 47.1356L105.204 50.0682H104.108L102.738 47.8822H102.652L101.277 50.0682H100.23ZM111.213 50.2508C110.647 50.2508 110.153 50.1595 109.73 49.9769C109.312 49.7907 108.979 49.5365 108.731 49.2142C108.488 48.8884 108.347 48.516 108.307 48.097L108.302 48.0379H109.269L109.274 48.097C109.299 48.3548 109.397 48.5786 109.569 48.7684C109.745 48.9546 109.978 49.0996 110.268 49.2035C110.561 49.3073 110.894 49.3592 111.267 49.3592C111.618 49.3592 111.929 49.3037 112.201 49.1927C112.477 49.0781 112.694 48.9206 112.851 48.7201C113.009 48.5195 113.087 48.2886 113.087 48.0272V48.0218C113.087 47.6996 112.969 47.4292 112.733 47.2108C112.497 46.9888 112.112 46.8187 111.578 46.7005L110.719 46.5125C109.942 46.3407 109.376 46.0757 109.021 45.7176C108.671 45.356 108.495 44.8941 108.495 44.3319V44.3265C108.499 43.8968 108.615 43.5173 108.844 43.1878C109.077 42.8584 109.397 42.6006 109.806 42.4144C110.217 42.2282 110.69 42.1351 111.224 42.1351C111.739 42.1351 112.196 42.2282 112.593 42.4144C112.991 42.597 113.306 42.8441 113.539 43.1556C113.775 43.4671 113.906 43.8163 113.931 44.203L113.936 44.2782H112.969L112.958 44.2083C112.923 43.9792 112.83 43.7769 112.679 43.6014C112.529 43.4224 112.328 43.2809 112.078 43.1771C111.827 43.0733 111.533 43.0231 111.197 43.0267C110.875 43.0267 110.584 43.0768 110.327 43.1771C110.069 43.2774 109.863 43.4224 109.709 43.6122C109.559 43.7984 109.483 44.0275 109.483 44.2997V44.305C109.483 44.613 109.598 44.8726 109.827 45.0838C110.056 45.2951 110.434 45.458 110.96 45.5726L111.82 45.766C112.629 45.945 113.207 46.2046 113.555 46.5448C113.902 46.8849 114.076 47.3343 114.076 47.8929V47.8983C114.076 48.3817 113.958 48.7988 113.721 49.1497C113.485 49.5007 113.152 49.7728 112.722 49.9662C112.292 50.1559 111.789 50.2508 111.213 50.2508ZM117.448 50.1703C116.9 50.1703 116.426 50.0503 116.025 49.8104C115.627 49.5669 115.319 49.2214 115.101 48.7738C114.886 48.3262 114.779 47.7944 114.779 47.1786V47.1678C114.779 46.5484 114.886 46.0148 115.101 45.5672C115.319 45.1196 115.627 44.7759 116.025 44.536C116.426 44.2961 116.9 44.1761 117.448 44.1761C118 44.1761 118.474 44.2961 118.872 44.536C119.269 44.7759 119.575 45.1196 119.79 45.5672C120.008 46.0148 120.118 46.5484 120.118 47.1678V47.1786C120.118 47.7944 120.008 48.3262 119.79 48.7738C119.575 49.2214 119.269 49.5669 118.872 49.8104C118.474 50.0503 118 50.1703 117.448 50.1703ZM117.448 49.3431C117.813 49.3431 118.123 49.2572 118.377 49.0853C118.632 48.9134 118.825 48.6664 118.958 48.3441C119.094 48.0218 119.162 47.6333 119.162 47.1786V47.1678C119.162 46.7095 119.094 46.3192 118.958 45.9969C118.825 45.6747 118.632 45.4294 118.377 45.2611C118.123 45.0892 117.813 45.0033 117.448 45.0033C117.083 45.0033 116.773 45.0892 116.519 45.2611C116.265 45.4294 116.07 45.6747 115.934 45.9969C115.801 46.3192 115.735 46.7095 115.735 47.1678V47.1786C115.735 47.6333 115.801 48.0218 115.934 48.3441C116.07 48.6664 116.265 48.9134 116.519 49.0853C116.773 49.2572 117.083 49.3431 117.448 49.3431ZM121.455 50.0682V45.0516H120.493V44.2782H121.455V43.6336C121.455 43.0571 121.598 42.6292 121.884 42.3499C122.171 42.0671 122.588 41.9256 123.136 41.9256C123.25 41.9256 123.358 41.931 123.458 41.9417C123.562 41.9489 123.662 41.9614 123.759 41.9793V42.7259C123.701 42.7152 123.635 42.708 123.56 42.7044C123.485 42.7009 123.406 42.6991 123.324 42.6991C122.991 42.6991 122.751 42.7796 122.604 42.9408C122.461 43.1019 122.389 43.3418 122.389 43.6605V44.2782H123.705V45.0516H122.389V50.0682H121.455ZM126.61 50.1112C126.016 50.1112 125.584 49.9912 125.316 49.7513C125.051 49.5114 124.918 49.1157 124.918 48.5643V45.0516H124.005V44.2782H124.918V42.7796H125.885V44.2782H127.153V45.0516H125.885V48.328C125.885 48.6681 125.95 48.9134 126.079 49.0638C126.208 49.2106 126.422 49.284 126.723 49.284C126.806 49.284 126.875 49.2822 126.933 49.2787C126.993 49.2751 127.067 49.2697 127.153 49.2625V50.0575C127.063 50.0718 126.974 50.0843 126.884 50.0951C126.795 50.1058 126.703 50.1112 126.61 50.1112Z" fill="#A0AEC0"/>
</svg>
