<svg width="167" height="42" viewBox="0 0 167 42" fill="none" xmlns="http://www.w3.org/2000/svg">
<path d="M24.8179 25.6542H28.3636V23.361H23.7613C23.0808 23.361 22.5256 23.9164 22.5256 24.5972V29.1835H24.8179V25.6542V25.6542Z" fill="#C3AC6F"/>
<path d="M27.11 12.97H13.3746C12.6941 12.97 12.1389 13.5254 12.1389 14.2062V27.9474C12.1389 28.6281 12.6941 29.1835 13.3746 29.1835H20.2513V26.9083H14.4311V15.2632H26.0714V21.0857H28.3636V14.2062C28.3457 13.5254 27.7905 12.97 27.11 12.97Z" fill="#222222"/>
<path d="M53.3308 29.2841C52.3559 29.2841 51.5074 29.0665 50.8394 28.6314C50.1533 28.1963 49.6298 27.5799 49.2867 26.8003C48.9257 26.0207 48.7632 25.1142 48.7632 24.0989V17.572C48.7632 17.427 48.8173 17.2819 48.9076 17.1913C49.0159 17.0825 49.1423 17.0462 49.2867 17.0462H50.4422C50.5866 17.0462 50.731 17.1006 50.8213 17.1913C50.9296 17.3 50.9657 17.427 50.9657 17.572V23.972C50.9657 26.2745 51.9587 27.4167 53.9627 27.4167C54.9195 27.4167 55.6778 27.1085 56.2555 26.5102C56.8332 25.8938 57.1221 25.0598 57.1221 23.972V17.572C57.1221 17.427 57.1762 17.2819 57.2665 17.1913C57.3748 17.0825 57.5012 17.0462 57.6456 17.0462H58.8011C58.9455 17.0462 59.0719 17.1006 59.1622 17.1913C59.2524 17.3 59.3066 17.427 59.3066 17.572V28.7583C59.3066 28.9215 59.2524 29.0484 59.1622 29.1391C59.0719 29.2478 58.9455 29.2841 58.8011 29.2841H57.7179C57.5554 29.2841 57.429 29.2297 57.3387 29.1391C57.2304 29.0303 57.1943 28.9034 57.1943 28.7583V27.5073C56.7791 28.0512 56.2736 28.4864 55.6778 28.7946C55.082 29.1209 54.3057 29.2841 53.3308 29.2841Z" fill="#222222"/>
<path d="M64.9803 29.2479C64.2079 29.2479 63.5253 29.1031 62.8967 28.7953C62.268 28.4876 61.765 28.0893 61.3878 27.5643C61.0106 27.0574 60.813 26.4781 60.813 25.8264C60.813 24.7764 61.2441 23.9617 62.0883 23.3281C62.9505 22.7126 64.0642 22.2962 65.4294 22.0971L68.8423 21.6264V20.9747C68.8423 20.2505 68.6267 19.6893 68.2136 19.2729C67.8005 18.8566 67.1179 18.6574 66.1659 18.6574C65.5012 18.6574 64.9444 18.8023 64.5133 19.0738C64.0822 19.3454 63.7948 19.6893 63.6152 20.1238C63.5253 20.3591 63.3637 20.4678 63.1302 20.4678H62.1063C61.9446 20.4678 61.8189 20.4135 61.7291 20.3229C61.6393 20.2324 61.6033 20.1057 61.6033 19.979C61.6033 19.7436 61.6932 19.4721 61.8728 19.1462C62.0524 18.8204 62.3218 18.4945 62.6811 18.1686C63.0404 17.8428 63.5253 17.5893 64.0822 17.3721C64.657 17.1548 65.3575 17.0462 66.1838 17.0462C67.0999 17.0462 67.8723 17.1548 68.501 17.3902C69.1297 17.6255 69.6147 17.9333 69.9739 18.3316C70.3332 18.7298 70.5847 19.1643 70.7463 19.6712C70.908 20.1781 70.9798 20.6669 70.9798 21.1919V28.7591C70.9798 28.9039 70.926 29.0307 70.8361 29.1393C70.7284 29.2298 70.6026 29.2841 70.4589 29.2841H69.3991C69.2375 29.2841 69.0938 29.2298 69.004 29.1393C68.9141 29.0488 68.8603 28.922 68.8603 28.7591V27.5281C68.6627 27.7996 68.3932 28.0712 68.0519 28.3246C67.7106 28.5962 67.2975 28.8134 66.7946 28.9763C66.3275 29.1755 65.7168 29.2479 64.9803 29.2479ZM65.4653 27.5462C66.094 27.5462 66.6688 27.4195 67.1897 27.1479C67.7106 26.8764 68.1238 26.4781 68.4112 25.9169C68.7166 25.3557 68.8603 24.6496 68.8603 23.8169V23.1833L66.2018 23.5634C65.124 23.7083 64.2977 23.9617 63.7589 24.3238C63.202 24.6858 62.9326 25.1203 62.9326 25.6634C62.9326 26.0798 63.0583 26.4419 63.3098 26.7134C63.5613 26.985 63.8846 27.2022 64.2798 27.3289C64.639 27.4919 65.0522 27.5462 65.4653 27.5462Z" fill="#222222"/>
<path d="M77.47 29.266C76.6413 29.266 75.9361 29.1214 75.3366 28.8321C74.7372 28.5428 74.2435 28.1451 73.8556 27.6389C73.4677 27.1327 73.1856 26.5541 73.0093 25.9033C72.8154 25.2524 72.7096 24.5654 72.6919 23.8422C72.6743 23.6072 72.6743 23.3721 72.6743 23.1552C72.6743 22.9382 72.6743 22.7213 72.6919 22.4682C72.7272 21.7631 72.833 21.0761 73.0093 20.4252C73.2032 19.7743 73.4853 19.1958 73.8556 18.6896C74.2435 18.1834 74.7372 17.7675 75.3366 17.4783C75.9361 17.189 76.6413 17.0444 77.47 17.0444C78.3515 17.0444 79.092 17.2071 79.6739 17.5144C80.2557 17.8218 80.7317 18.2195 81.1196 18.6896V13.4285C81.1196 13.2838 81.1725 13.1573 81.2607 13.0488C81.3665 12.9584 81.4899 12.9042 81.6309 12.9042H82.7064C82.8475 12.9042 82.9885 12.9584 83.0767 13.0488C83.1825 13.1392 83.2177 13.2658 83.2177 13.4285V28.7598C83.2177 28.9044 83.1648 29.031 83.0767 29.1395C82.9709 29.2299 82.8475 29.2841 82.7064 29.2841H81.7014C81.5428 29.2841 81.4017 29.2299 81.3136 29.1395C81.2254 29.0491 81.1725 28.9225 81.1725 28.7598V27.5846C80.8023 28.0728 80.3086 28.4705 79.7091 28.796C79.1273 29.1033 78.3692 29.266 77.47 29.266ZM77.946 27.44C78.7042 27.44 79.3036 27.2592 79.7444 26.9157C80.2028 26.5722 80.5378 26.1202 80.7494 25.5959C80.9786 25.0535 81.102 24.5111 81.102 23.9507C81.1196 23.7156 81.1196 23.4264 81.1196 23.0829C81.1196 22.7394 81.1196 22.4501 81.102 22.2151C81.0844 21.6908 80.9609 21.1665 80.7317 20.6602C80.5025 20.154 80.1499 19.7201 79.6915 19.3947C79.2331 19.0692 78.6513 18.8884 77.9284 18.8884C77.1702 18.8884 76.5532 19.0512 76.1124 19.3947C75.654 19.7382 75.3366 20.1721 75.1427 20.7325C74.9487 21.2749 74.8429 21.8715 74.8077 22.5043C74.7901 22.9382 74.7901 23.3721 74.8077 23.8241C74.8429 24.4569 74.9487 25.0535 75.1427 25.5959C75.3366 26.1383 75.654 26.5903 76.1124 26.9338C76.5708 27.2773 77.1879 27.44 77.946 27.44Z" fill="#222222"/>
<path d="M86.1735 29.2841C86.0158 29.2841 85.8931 29.2297 85.8055 29.1391C85.7003 29.0303 85.6653 28.9034 85.6653 28.7583V17.6083C85.6653 17.4451 85.7179 17.3182 85.8055 17.2094C85.9106 17.1006 86.0333 17.0462 86.1735 17.0462H87.2075C87.3477 17.0462 87.4879 17.1006 87.5931 17.2094C87.6983 17.3182 87.7508 17.4451 87.7508 17.6083V18.6417C88.0488 18.1159 88.4519 17.6989 88.9776 17.4451C89.5034 17.1731 90.1343 17.0462 90.8704 17.0462H91.7467C91.8869 17.0462 92.0096 17.1006 92.1147 17.1913C92.2199 17.3 92.2549 17.427 92.2549 17.572V18.5329C92.2549 18.6961 92.2023 18.823 92.1147 18.9136C92.0096 19.0043 91.8869 19.0587 91.7467 19.0587H90.3972C89.591 19.0587 88.9601 19.3125 88.5044 19.802C88.0488 20.2915 87.8034 20.9623 87.8034 21.8145V28.7402C87.8034 28.9034 87.7508 29.0303 87.6457 29.1209C87.5405 29.2297 87.4178 29.266 87.2601 29.266H86.1735V29.2841Z" fill="#222222"/>
<path d="M93.4761 15.239C93.3308 15.239 93.2178 15.1847 93.1372 15.0942C93.0403 14.9856 93.0081 14.8589 93.0081 14.7141V13.4653C93.0081 13.3205 93.0565 13.1757 93.1372 13.0671C93.234 12.9585 93.347 12.9042 93.4761 12.9042H94.7671C94.8962 12.9042 95.0253 12.9585 95.1221 13.0671C95.2189 13.1757 95.2674 13.3024 95.2674 13.4653V14.7141C95.2674 14.877 95.2189 15.0037 95.1221 15.0942C95.0253 15.2028 94.9123 15.239 94.7671 15.239H93.4761ZM93.6374 29.2841C93.4922 29.2841 93.3792 29.2298 93.2985 29.1393C93.2017 29.0307 93.1694 28.904 93.1694 28.7592V17.5919C93.1694 17.4471 93.2178 17.3023 93.2985 17.2118C93.3954 17.1032 93.5083 17.067 93.6374 17.067H94.6218C94.7509 17.067 94.8639 17.1213 94.9607 17.2118C95.0576 17.3204 95.0898 17.4471 95.0898 17.5919V28.7592C95.0898 28.9221 95.0414 29.0488 94.9607 29.1393C94.8639 29.2479 94.7509 29.2841 94.6218 29.2841H93.6374Z" fill="#222222"/>
<path d="M96.8686 29.2841C96.7416 29.2841 96.6327 29.2297 96.5419 29.1391C96.433 29.0484 96.3967 28.9215 96.3967 28.7946C96.3967 28.7402 96.4149 28.6858 96.433 28.6133C96.4512 28.5408 96.5056 28.4682 96.5601 28.3595L100.571 23.0292L96.796 17.9527C96.7416 17.8621 96.6871 17.7714 96.669 17.717C96.6508 17.6627 96.6327 17.5901 96.6327 17.5357C96.6327 17.3907 96.6871 17.2819 96.7779 17.1913C96.8686 17.1006 96.9776 17.0462 97.1228 17.0462H98.3026C98.4659 17.0462 98.6111 17.0825 98.7019 17.1731C98.7926 17.2638 98.8652 17.3363 98.9015 17.427L101.987 21.5063L105.073 17.4451C105.127 17.3726 105.2 17.2819 105.291 17.1913C105.381 17.1006 105.508 17.0462 105.672 17.0462H106.797C106.942 17.0462 107.051 17.1006 107.142 17.1913C107.233 17.2819 107.287 17.4088 107.287 17.5357C107.287 17.5901 107.269 17.6627 107.251 17.717C107.233 17.7714 107.178 17.8621 107.124 17.9527L103.312 23.0654L107.342 28.3595C107.396 28.4501 107.451 28.5408 107.469 28.5952C107.487 28.6495 107.505 28.7221 107.505 28.7765C107.505 28.9215 107.451 29.0303 107.36 29.1209C107.269 29.2116 107.16 29.266 107.015 29.266H105.781C105.617 29.266 105.508 29.2297 105.418 29.1572C105.327 29.0847 105.254 28.994 105.182 28.9215L101.933 24.6246L98.6474 28.9396C98.593 28.994 98.5204 29.0847 98.4296 29.1572C98.3389 29.2478 98.2118 29.2841 98.0484 29.2841H96.8686Z" fill="#222222"/>
<path d="M119.609 29.2841C118.261 29.2841 117.131 29.0846 116.22 28.6674C115.309 28.2501 114.599 27.7241 114.125 27.0892C113.633 26.4362 113.378 25.765 113.342 25.0395C113.342 24.9125 113.396 24.8037 113.487 24.713C113.597 24.6223 113.706 24.5678 113.852 24.5678H115.036C115.218 24.5678 115.364 24.6223 115.455 24.713C115.546 24.8037 115.601 24.9125 115.637 25.0395C115.728 25.4023 115.929 25.765 116.22 26.1278C116.512 26.4906 116.931 26.7809 117.478 27.0167C118.024 27.2525 118.735 27.3613 119.609 27.3613C120.939 27.3613 121.923 27.1255 122.543 26.672C123.162 26.2004 123.49 25.5836 123.49 24.8218C123.49 24.2957 123.326 23.8604 122.998 23.5339C122.67 23.2074 122.16 22.9171 121.468 22.6632C120.794 22.4092 119.901 22.119 118.826 21.8106C117.696 21.4841 116.767 21.1395 116.02 20.7586C115.273 20.3776 114.726 19.906 114.362 19.3437C113.997 18.7814 113.815 18.0739 113.815 17.2032C113.815 16.3869 114.034 15.6432 114.489 15.0083C114.945 14.3553 115.583 13.8474 116.439 13.4665C117.295 13.0856 118.316 12.9042 119.5 12.9042C120.466 12.9042 121.304 13.0311 122.014 13.2851C122.743 13.5391 123.326 13.8656 123.818 14.2828C124.292 14.7 124.656 15.1535 124.911 15.6251C125.166 16.0967 125.294 16.5683 125.312 17.0218C125.312 17.1307 125.276 17.2395 125.203 17.3302C125.13 17.4209 125.002 17.4753 124.838 17.4753H123.6C123.49 17.4753 123.381 17.439 123.272 17.3846C123.162 17.3302 123.071 17.2032 122.998 17.04C122.907 16.4232 122.543 15.8972 121.923 15.4618C121.304 15.0446 120.502 14.827 119.5 14.827C118.498 14.827 117.678 15.0083 117.04 15.3893C116.421 15.7702 116.093 16.3688 116.093 17.1669C116.093 17.693 116.239 18.1102 116.53 18.4548C116.822 18.7995 117.295 19.0897 117.933 19.3618C118.571 19.6158 119.391 19.8879 120.411 20.1781C121.65 20.5046 122.67 20.8674 123.454 21.2302C124.237 21.6111 124.82 22.0646 125.203 22.6269C125.586 23.1892 125.768 23.8967 125.768 24.7674C125.768 25.7288 125.513 26.545 125.002 27.2162C124.492 27.8874 123.782 28.4134 122.852 28.7762C121.96 29.1027 120.866 29.2841 119.609 29.2841Z" fill="#222222"/>
<path d="M132.151 29.2841C130.972 29.2841 129.992 29.0665 129.212 28.6314C128.432 28.1963 127.816 27.5799 127.417 26.8003C126.999 26.0207 126.764 25.1323 126.727 24.1351C126.709 23.8813 126.709 23.555 126.709 23.1561C126.709 22.7572 126.709 22.4309 126.727 22.1952C126.782 21.1799 127.018 20.2915 127.435 19.5119C127.852 18.7323 128.469 18.134 129.249 17.6989C130.029 17.2638 131.008 17.0462 132.169 17.0462C133.33 17.0462 134.292 17.2638 135.09 17.6989C135.87 18.134 136.486 18.7505 136.904 19.5119C137.321 20.2915 137.557 21.1799 137.611 22.1952C137.629 22.4309 137.629 22.7572 137.629 23.1561C137.629 23.555 137.629 23.8813 137.611 24.1351C137.557 25.1323 137.339 26.0207 136.922 26.8003C136.505 27.5799 135.906 28.1963 135.126 28.6314C134.292 29.0665 133.312 29.2841 132.151 29.2841ZM132.151 27.5436C133.112 27.5436 133.874 27.2535 134.437 26.6552C134.999 26.0569 135.307 25.1867 135.362 24.0263C135.38 23.7907 135.38 23.5187 135.38 23.1561C135.38 22.8116 135.38 22.5215 135.362 22.2859C135.307 21.1436 134.999 20.2553 134.437 19.657C133.874 19.0587 133.094 18.7686 132.151 18.7686C131.19 18.7686 130.428 19.0587 129.847 19.657C129.267 20.2553 128.959 21.1255 128.94 22.2859C128.922 22.5215 128.922 22.7935 128.922 23.1561C128.922 23.5006 128.922 23.7907 128.94 24.0263C128.977 25.1686 129.267 26.0569 129.847 26.6552C130.428 27.2354 131.19 27.5436 132.151 27.5436Z" fill="#222222"/>
<path d="M140.976 29.2841C140.815 29.2841 140.689 29.2297 140.6 29.1391C140.493 29.0304 140.457 28.9036 140.457 28.7586V18.9017H138.524C138.363 18.9017 138.238 18.8473 138.149 18.7567C138.041 18.648 138.006 18.5212 138.006 18.3762V17.5971C138.006 17.4521 138.059 17.3072 138.149 17.2166C138.256 17.1079 138.381 17.0716 138.524 17.0716H140.457V16.8361C140.457 16.0569 140.582 15.3684 140.85 14.7705C141.101 14.1725 141.53 13.7195 142.103 13.3934C142.675 13.0672 143.445 12.9042 144.393 12.9042H145.771C145.914 12.9042 146.057 12.9585 146.147 13.0491C146.254 13.1578 146.29 13.2847 146.29 13.4296V14.2088C146.29 14.3718 146.236 14.4987 146.147 14.5893C146.039 14.698 145.914 14.7342 145.771 14.7342H144.447C143.731 14.7342 143.248 14.9154 142.98 15.2959C142.729 15.6764 142.586 16.22 142.586 16.9267V17.0535H145.52C145.663 17.0535 145.807 17.1079 145.896 17.1985C146.003 17.3072 146.039 17.434 146.039 17.579V18.3581C146.039 18.5212 145.986 18.648 145.896 18.7386C145.789 18.8473 145.663 18.8836 145.52 18.8836H142.586V28.7405C142.586 28.9036 142.532 29.0304 142.443 29.121C142.336 29.2297 142.21 29.266 142.067 29.266H140.976V29.2841Z" fill="#222222"/>
<path d="M152.845 29.2841C151.973 29.2841 151.284 29.1208 150.739 28.7943C150.194 28.4678 149.813 27.9962 149.559 27.3795C149.305 26.7627 149.196 26.0553 149.196 25.2209V18.8902H147.381C147.218 18.8902 147.09 18.8358 147 18.7451C146.891 18.6362 146.854 18.5093 146.854 18.3641V17.5841C146.854 17.439 146.909 17.2939 147 17.2032C147.109 17.0944 147.236 17.0581 147.381 17.0581H149.178V13.4302C149.178 13.2851 149.232 13.14 149.323 13.0493C149.432 12.9404 149.559 12.9042 149.704 12.9042H150.793C150.939 12.9042 151.084 12.9586 151.175 13.0493C151.284 13.1581 151.32 13.2851 151.32 13.4302V17.0581H154.188C154.351 17.0581 154.497 17.1125 154.587 17.2032C154.678 17.3121 154.732 17.439 154.732 17.5841V18.3641C154.732 18.5274 154.678 18.6544 154.587 18.7451C154.497 18.8539 154.369 18.8902 154.188 18.8902H151.32V25.0576C151.32 25.7832 151.447 26.3455 151.683 26.7627C151.937 27.1799 152.373 27.3795 153.008 27.3795H154.424C154.569 27.3795 154.696 27.4339 154.805 27.5246C154.914 27.6334 154.95 27.7604 154.95 27.9055V28.7399C154.95 28.9032 154.896 29.0301 154.805 29.1208C154.696 29.2297 154.569 29.266 154.424 29.266H152.845V29.2841Z" fill="#222222"/>
<path d="M46.8805 21.1032C46.8805 20.4878 46.8628 19.8543 46.8272 19.1847C46.7917 17.791 46.5252 16.6326 45.9922 15.6915C45.4592 14.7503 44.7308 14.0625 43.8069 13.5919C42.883 13.1395 41.7992 12.9042 40.5556 12.9042C39.3297 12.9042 38.2636 13.1395 37.322 13.5919C36.3981 14.0625 35.6697 14.7503 35.1367 15.6915C34.6037 16.6326 34.3194 17.791 34.2839 19.1847C34.2661 19.8543 34.2661 20.4878 34.2661 21.1032C34.2661 21.7186 34.2661 22.352 34.2839 23.0217C34.3372 24.4335 34.6037 25.6099 35.1189 26.533C35.6164 27.4742 36.3448 28.1619 37.2687 28.5963C38.1926 29.0488 39.2941 29.266 40.5733 29.266C41.6393 29.266 42.581 29.085 43.3982 28.723L43.6292 29.0126C43.7714 29.1755 43.9668 29.2841 44.18 29.2841H45.4059C45.779 29.2841 45.9922 28.8678 45.779 28.5601L45.1927 27.6914C46.2054 26.6597 46.7562 25.1031 46.8272 23.0217C46.8628 22.3701 46.8805 21.7186 46.8805 21.1032ZM40.5556 27.3475C39.4185 27.3475 38.4946 27.0036 37.7484 26.2977C37.0022 25.5918 36.6113 24.4697 36.5403 22.9131C36.5225 22.2253 36.5225 21.6281 36.5225 21.0851C36.5225 20.5421 36.5225 19.9448 36.5403 19.2751C36.5936 18.2254 36.789 17.3747 37.1266 16.7231C37.4819 16.0716 37.9438 15.601 38.5479 15.2933C39.152 14.9856 39.8094 14.8408 40.5556 14.8408C41.3195 14.8408 42.0124 14.9856 42.5987 15.2933C43.185 15.601 43.6648 16.0716 44.0201 16.7231C44.3754 17.3747 44.5709 18.2254 44.6064 19.2751C44.6419 19.9448 44.6597 20.5421 44.6597 21.0851C44.6597 21.6281 44.6419 22.2253 44.6064 22.9131C44.5531 24.4697 44.1445 25.6099 43.3982 26.2977C42.652 27.0036 41.7104 27.3475 40.5556 27.3475Z" fill="#222222"/>
</svg>
